HIERARCHY
ROOT Hips
{
	OFFSET 0.00000 0.00000 0.00000
	CHANNELS 6 Xposition Yposition Zposition Zrotation Yrotation Xrotation 
	JOINT LHipJoint
	{
		OFFSET 0 0 0
		CHANNELS 3 Zrotation Yrotation Xrotation
		JOINT LeftUpLeg
		{
			OFFSET 1.26600 -1.82114 0.91038
			CHANNELS 3 Zrotation Yrotation Xrotation
			JOINT LeftLeg
			{
				OFFSET 2.50076 -6.87080 0.00000
				CHANNELS 3 Zrotation Yrotation Xrotation
				JOINT LeftFoot
				{
					OFFSET 2.57364 -7.07102 0.00000
					CHANNELS 3 Zrotation Yrotation Xrotation
					JOINT LeftToeBase
					{
						OFFSET 0.13572 -0.37290 1.97004
						CHANNELS 3 Zrotation Yrotation Xrotation
						End Site
						{
							OFFSET 0.00000 -0.00000 1.01383
						}
					}
				}
			}
		}
	}
	JOINT RHipJoint
	{
		OFFSET 0 0 0
		CHANNELS 3 Zrotation Yrotation Xrotation
		JOINT RightUpLeg
		{
			OFFSET -1.20803 -1.82114 0.91038
			CHANNELS 3 Zrotation Yrotation Xrotation
			JOINT RightLeg
			{
				OFFSET -2.54916 -7.00377 0.00000
				CHANNELS 3 Zrotation Yrotation Xrotation
				JOINT RightFoot
				{
					OFFSET -2.56374 -7.04382 0.00000
					CHANNELS 3 Zrotation Yrotation Xrotation
					JOINT RightToeBase
					{
						OFFSET -0.23520 -0.64621 2.09921
						CHANNELS 3 Zrotation Yrotation Xrotation
						End Site
						{
							OFFSET -0.00000 -0.00000 1.10065
						}
					}
				}
			}
		}
	}
	JOINT LowerBack
	{
		OFFSET 0 0 0
		CHANNELS 3 Zrotation Yrotation Xrotation
		JOINT Spine
		{
			OFFSET 0.05492 2.10797 -0.12074
			CHANNELS 3 Zrotation Yrotation Xrotation
			JOINT Spine1
			{
				OFFSET 0.04577 2.11592 -0.04483
				CHANNELS 3 Zrotation Yrotation Xrotation
				JOINT Neck
				{
					OFFSET 0 0 0
					CHANNELS 3 Zrotation Yrotation Xrotation
					JOINT Neck1
					{
						OFFSET -0.10759 1.80167 0.15770
						CHANNELS 3 Zrotation Yrotation Xrotation
						JOINT Head
						{
							OFFSET 0.09237 1.77509 -0.40848
							CHANNELS 3 Zrotation Yrotation Xrotation
							End Site
							{
								OFFSET 0.03805 1.84093 -0.15754
							}
						}
					}
				}
				JOINT LeftShoulder
				{
					OFFSET 0 0 0
					CHANNELS 3 Zrotation Yrotation Xrotation
					JOINT LeftArm
					{
						OFFSET 3.42372 1.09575 -0.28209
						CHANNELS 3 Zrotation Yrotation Xrotation
						JOINT LeftForeArm
						{
							OFFSET 4.95681 -0.00000 0.00000
							CHANNELS 3 Zrotation Yrotation Xrotation
							JOINT LeftHand
							{
								OFFSET 3.40915 -0.00000 0.00000
								CHANNELS 3 Zrotation Yrotation Xrotation
								JOINT LeftFingerBase
								{
									OFFSET 0 0 0
									CHANNELS 3 Zrotation Yrotation Xrotation
									JOINT LeftHandIndex1
									{
										OFFSET 0.61640 -0.00000 0.00000
										CHANNELS 3 Zrotation Yrotation Xrotation
										End Site
										{
											OFFSET 0.49696 -0.00000 0.00000
										}
									}
								}
								JOINT LThumb
								{
									OFFSET 0 0 0
									CHANNELS 3 Zrotation Yrotation Xrotation
									End Site
									{
										OFFSET 0.50455 -0.00000 0.50455
									}
								}
							}
						}
					}
				}
				JOINT RightShoulder
				{
					OFFSET 0 0 0
					CHANNELS 3 Zrotation Yrotation Xrotation
					JOINT RightArm
					{
						OFFSET -3.24731 1.15872 -0.32221
						CHANNELS 3 Zrotation Yrotation Xrotation
						JOINT RightForeArm
						{
							OFFSET -5.35200 -0.00000 0.00000
							CHANNELS 3 Zrotation Yrotation Xrotation
							JOINT RightHand
							{
								OFFSET -3.43721 -0.00000 -0.00000
								CHANNELS 3 Zrotation Yrotation Xrotation
								JOINT RightFingerBase
								{
									OFFSET 0 0 0
									CHANNELS 3 Zrotation Yrotation Xrotation
									JOINT RightHandIndex1
									{
										OFFSET -0.72009 -0.00000 0.00000
										CHANNELS 3 Zrotation Yrotation Xrotation
										End Site
										{
											OFFSET -0.58056 -0.00000 0.00000
										}
									}
								}
								JOINT RThumb
								{
									OFFSET 0 0 0
									CHANNELS 3 Zrotation Yrotation Xrotation
									End Site
									{
										OFFSET -0.58942 -0.00000 0.58942
									}
								}
							}
						}
					}
				}
			}
		}
	}
}
MOTION
Frames: 16
Frame Time: .0083333
15.3513 20.9223 -0.0836 233.2380 81.2027 593.4940 0.0000 0.0000 0.0000 -7.6481 -13.3891 -21.8026 6.8107 15.1704 48.1548 -0.0640 -13.9759 -9.0273 0.0000 0.0390 0.1071 0.0000 0.0000 0.0000 29.7949 -1.7162 -12.7336 -2.1986 -9.2680 26.6375 -0.5863 5.0444 -13.6320 -0.8147 -5.7597 16.0887 6.9819 0.2732 8.2592 4.6050 1.3070 1.6180 0.7225 0.6829 -2.9158 -11.7753 -5.4518 -12.6099 7.3039 -5.9993 34.7385 4.2457 -2.7047 14.7641 -0.0000 0.0000 0.0000 -91.2644 6.1615 23.9073 16.4870 -26.1765 -3.8583 -0.0000 0.0000 -2.4048 24.5315 18.0111 8.0323 -7.1250 0.0000 -0.0000 -3.4876 49.6146 -0.3972 -0.0000 0.0000 0.0000 81.8312 1.3203 21.0838 -22.3708 33.3935 -6.7888 0.0000 -0.0000 -15.7447 -22.7312 10.5610 -4.3909 7.1250 -0.0000 -0.0000 3.0531 -18.5611 1.9252
15.3955 20.9136 -0.1006 236.6750 81.0068 596.8740 0.0000 0.0000 0.0000 -6.9489 -14.2784 -21.4304 6.4010 14.8060 46.5707 -0.1166 -14.8767 -9.0859 0.0096 -0.6310 -1.7341 0.0000 0.0000 0.0000 30.2233 -1.6523 -12.4557 -2.2072 -9.2849 26.6906 -0.6101 5.3460 -13.9100 -0.6073 -4.9882 13.8750 7.4254 0.2702 8.1890 4.7568 1.3449 1.6884 0.6322 0.7078 -2.7961 -11.8410 -5.3744 -12.5899 7.3670 -5.8929 34.6987 4.3004 -2.6611 14.7314 0.0000 0.0000 0.0000 -91.3254 6.1070 23.9958 16.4535 -26.1318 -3.8435 -0.0000 0.0000 -2.3184 25.4480 18.0004 8.3655 -7.1250 0.0000 -0.0000 -2.5839 49.7531 -0.3030 0.0000 0.0000 0.0000 81.8060 1.6047 20.8602 -22.5382 33.5799 -6.8812 0.0000 -0.0000 -15.5282 -22.7490 10.6378 -4.4262 7.1250 -0.0000 -0.0000 3.0434 -18.4770 1.9247
15.4493 20.9108 -0.1211 237.4160 81.3681 597.4260 0.0000 0.0000 0.0000 -7.1324 -15.3860 -20.6612 5.9821 14.4110 44.9098 -0.2207 -15.9026 -8.6900 0.0055 -0.4785 -1.3149 0.0000 0.0000 0.0000 29.8140 -1.8115 -12.0528 -2.2277 -9.3250 26.8173 -0.6416 5.9435 -14.2835 -0.4260 -4.1887 11.6082 7.2274 0.2392 8.1954 4.6725 1.2718 1.7993 0.6618 0.6757 -2.6889 -11.7993 -5.3269 -12.7022 7.3516 -5.8154 34.8706 4.3073 -2.6233 14.8254 0.0000 0.0000 0.0000 -91.4285 6.1217 23.8024 16.4575 -26.1370 -3.8453 -0.0000 0.0000 -2.1062 25.1083 17.7054 8.1109 -7.1250 0.0000 -0.0000 -2.8556 49.3791 -0.3086 0.0000 0.0000 0.0000 81.8517 1.7328 20.8396 -22.8191 33.8904 -7.0372 0.0000 -0.0000 -15.5757 -22.5679 10.5650 -4.3576 7.1250 -0.0000 -0.0000 3.1687 -18.5709 1.9976
15.4809 20.9064 -0.1425 242.2420 81.6254 602.4860 0.0000 0.0000 0.0000 -6.5865 -16.2654 -20.5930 5.5950 14.0240 43.3338 -0.3878 -16.9964 -7.6798 0.0002 0.0945 0.2596 0.0000 0.0000 0.0000 29.9312 -1.0796 -11.9776 -2.2400 -9.3491 26.8935 -0.6348 6.1390 -14.2200 -0.6215 -5.0450 14.0370 7.3892 0.3940 8.1857 4.6720 1.4944 1.7135 0.5489 0.7806 -2.7598 -11.7670 -5.3360 -12.7633 7.3282 -5.8237 34.9891 4.2955 -2.6255 14.8947 0.0000 0.0000 0.0000 -91.5122 6.1112 23.7075 16.4840 -26.1725 -3.8570 -0.0000 0.0000 -2.1307 24.6111 17.8038 7.9729 -7.1250 0.0000 -0.0000 -3.3637 49.4048 -0.3657 0.0000 0.0000 0.0000 81.8997 1.7980 21.0027 -23.1508 34.2534 -7.2230 0.0000 -0.0000 -15.9200 -22.6604 10.4144 -4.3159 7.1250 -0.0000 -0.0000 3.0981 -18.7249 1.9424
15.5219 20.9020 -0.1658 243.1180 82.2877 603.4750 0.0000 0.0000 0.0000 -6.9382 -17.5310 -20.1243 5.2039 13.6098 41.6962 -0.5432 -18.0363 -6.8533 0.0019 -0.2851 -0.7834 0.0000 0.0000 0.0000 29.2881 -0.7065 -11.8443 -2.2573 -9.3826 26.9997 -0.6273 6.3753 -14.1544 -1.1614 -6.8417 19.2474 6.8948 0.4025 8.1318 4.5282 1.4402 1.7177 0.6791 0.7524 -2.7352 -11.8981 -5.2480 -12.8417 7.4162 -5.6830 35.0385 4.3821 -2.5730 14.9265 -0.0000 0.0000 0.0000 -91.6613 6.2080 23.3914 16.6234 -26.3586 -3.9187 -0.0000 0.0000 -1.9424 24.6390 17.7648 7.9663 -7.1250 0.0000 -0.0000 -3.3278 49.3674 -0.3587 -0.0000 0.0000 0.0000 81.9804 2.0282 21.2597 -23.3845 34.5066 -7.3550 0.0000 -0.0000 -16.1028 -22.8998 10.3767 -4.3509 7.1250 -0.0000 -0.0000 2.9273 -18.7454 1.8337
15.5649 20.8851 -0.1879 246.1610 82.1806 606.5520 0.0000 0.0000 0.0000 -6.4039 -18.8944 -19.6079 4.8494 13.2122 40.1679 -0.6779 -19.1445 -6.4849 0.0549 -1.5114 -4.1573 0.0000 0.0000 0.0000 29.5562 -0.2893 -11.6197 -2.2645 -9.3966 27.0439 -0.6474 6.3576 -14.3718 -1.3411 -7.3323 20.7036 7.1979 0.3258 8.0325 4.6094 1.3594 1.7467 0.6053 0.7156 -2.6479 -12.0039 -5.1582 -12.8787 7.4770 -5.5395 35.0964 4.4541 -2.5196 14.9498 0.0000 0.0000 0.0000 -91.7990 6.3823 23.0434 16.8561 -26.6677 -4.0225 -0.0000 0.0000 -1.7749 24.4419 17.7087 7.8712 -7.1250 0.0000 -0.0000 -3.5083 49.2757 -0.3703 0.0000 0.0000 0.0000 82.0492 2.2783 21.3748 -23.5647 34.7005 -7.4573 0.0000 -0.0000 -16.2625 -22.9960 10.3306 -4.3521 7.1250 -0.0000 -0.0000 2.8575 -18.7869 1.7872
15.6137 20.8783 -0.2096 248.7770 82.2880 609.2030 0.0000 0.0000 0.0000 -6.1044 -20.3748 -19.0248 4.5203 12.8224 38.7071 -0.8393 -20.3149 -5.9841 0.0723 -1.7349 -4.7737 0.0000 0.0000 0.0000 29.5362 -0.1360 -11.4349 -2.2641 -9.3958 27.0414 -0.6654 6.3885 -14.5679 -0.8551 -5.8973 16.4868 7.1268 0.3202 7.8967 4.6859 1.3353 1.7392 0.7282 0.7062 -2.5847 -11.9856 -5.1480 -12.6948 7.3216 -5.4963 35.0675 4.3900 -2.5218 14.8818 -0.0000 -0.0000 0.0000 -92.0207 6.5520 22.7951 17.0431 -26.9146 -4.1068 -0.0000 0.0000 -1.6966 24.1453 18.1681 7.9569 -7.1250 0.0000 -0.0000 -3.9024 49.7200 -0.4547 -0.0000 -0.0000 0.0000 81.9656 2.3885 21.5340 -23.7459 34.8944 -7.5607 0.0000 -0.0000 -16.5363 -22.9510 10.2616 -4.3141 7.1250 -0.0000 -0.0000 2.8868 -18.8650 1.8006
15.6660 20.8825 -0.2298 250.6740 82.6852 610.9980 0.0000 0.0000 0.0000 -6.2109 -21.8752 -18.2697 4.2281 12.4579 37.3718 -1.0870 -21.6965 -4.8440 0.0113 -0.6849 -1.8822 0.0000 0.0000 0.0000 29.1102 -0.2330 -11.0729 -2.2552 -9.3786 26.9871 -0.6759 6.8047 -14.7115 -0.5500 -4.7511 13.2001 6.7481 0.3655 7.9290 4.6376 1.3590 1.7530 0.8850 0.7177 -2.5946 -11.8799 -5.1558 -12.5201 7.2123 -5.5198 35.0328 4.3194 -2.5339 14.8193 -0.0000 -0.0000 0.0000 -92.2505 6.7188 22.3835 17.1709 -27.0825 -4.1649 -0.0000 0.0000 -1.0524 24.0160 18.2689 7.9513 -7.1250 0.0000 -0.0000 -4.0529 49.8067 -0.4810 -0.0000 -0.0000 0.0000 81.9350 2.3696 21.6219 -23.9341 35.0945 -7.6686 0.0000 -0.0000 -16.7320 -22.9933 10.3798 -4.3720 7.1250 -0.0000 -0.0000 2.8612 -18.7339 1.7929
15.7100 20.8791 -0.2567 256.5100 82.5304 616.8390 0.0000 0.0000 0.0000 -5.5083 -22.9886 -17.7910 3.9644 12.1129 36.1326 -1.3698 -23.1022 -3.4789 0.0012 0.2229 0.6125 0.0000 0.0000 0.0000 29.4025 0.0330 -10.7952 -2.2573 -9.3827 26.9999 -0.6661 7.3285 -14.6633 -0.5820 -4.8851 13.5810 7.1897 0.4421 7.9161 4.6572 1.4974 1.7893 0.6477 0.7874 -2.5344 -11.8094 -5.1204 -12.6071 7.3133 -5.5177 35.1090 4.3540 -2.5111 14.8743 -0.0000 0.0000 0.0000 -92.1791 6.6831 22.6028 17.0460 -26.9183 -4.1081 -0.0000 0.0000 -0.6850 24.6320 17.9710 8.0520 -7.1250 0.0000 -0.0000 -3.3801 49.5878 -0.3827 -0.0000 0.0000 0.0000 82.0805 2.4054 21.7056 -24.1541 35.3268 -7.7955 0.0000 -0.0000 -16.7260 -22.9681 10.6291 -4.4699 7.1250 -0.0000 -0.0000 2.8883 -18.4674 1.8270
15.7515 20.8735 -0.2918 263.1270 82.6234 623.7280 0.0000 0.0000 0.0000 -5.0857 -24.0835 -17.5874 3.7272 11.7883 34.9871 -1.6041 -24.2317 -2.4424 0.0366 1.2349 3.3953 0.0000 0.0000 0.0000 29.3394 0.3246 -10.8961 -2.2683 -9.4040 27.0673 -0.6244 8.1238 -14.3407 -0.9382 -6.1696 17.2772 7.3875 0.5718 7.6582 4.5964 1.6508 1.7859 0.4647 0.8645 -2.3801 -11.8427 -5.1219 -12.7798 7.3954 -5.5261 35.2623 4.4005 -2.5092 14.9931 0.0000 0.0000 0.0000 -91.9222 6.5016 23.8796 16.7063 -26.4690 -3.9555 -0.0000 0.0000 -1.2694 25.7362 18.0885 8.5122 -7.1250 0.0000 -0.0000 -2.3179 49.8962 -0.2799 0.0000 0.0000 0.0000 82.2024 2.4766 22.0619 -24.4565 35.6433 -7.9710 0.0000 -0.0000 -16.7516 -22.9709 10.5223 -4.4263 7.1250 -0.0000 -0.0000 2.8823 -18.5823 1.8158
15.7923 20.8631 -0.3207 269.1660 82.8603 629.9750 0.0000 0.0000 0.0000 -4.9863 -25.2068 -17.3299 3.5192 11.4915 33.9560 -1.8223 -25.2628 -1.5730 0.1134 2.1714 5.9797 0.0000 0.0000 0.0000 29.0235 0.6759 -10.9075 -2.2810 -9.4284 27.1449 -0.5968 8.7506 -14.1717 -1.3310 -7.3058 20.6244 7.2508 0.7778 7.4715 4.5149 1.8825 1.7947 0.4381 0.9804 -2.2575 -11.9094 -5.2356 -12.8243 7.4180 -5.6872 35.2813 4.3947 -2.5860 15.0396 -0.0000 -0.0000 0.0000 -91.7157 6.3229 24.9814 16.5715 -26.2894 -3.8956 -0.0000 0.0000 -1.9700 25.7338 18.1947 8.5588 -7.1250 0.0000 -0.0000 -2.3426 50.0107 -0.2895 -0.0000 -0.0000 0.0000 82.2434 2.4970 22.2712 -24.7829 35.9812 -8.1620 0.0000 -0.0000 -17.0657 -23.2020 10.2151 -4.3471 7.1250 -0.0000 -0.0000 2.7072 -18.8940 1.6866
15.8351 20.8496 -0.3423 275.1810 82.5106 636.0290 0.0000 0.0000 0.0000 -4.3372 -25.8661 -17.0366 3.3293 11.2100 32.9913 -2.1847 -26.5897 0.6046 0.3045 3.5477 9.8077 0.0000 0.0000 0.0000 29.3145 1.4141 -10.5978 -2.3051 -9.4746 27.2914 -0.6055 8.8562 -14.2842 -1.2782 -7.1650 20.2051 7.5674 0.9670 7.3973 4.5426 2.1487 1.8485 0.2712 1.1167 -2.1377 -11.9333 -5.3427 -12.7414 7.4938 -5.8848 35.1897 4.3932 -2.6668 15.0075 0.0000 0.0000 0.0000 -91.5111 6.1913 25.3394 16.5721 -26.2902 -3.8959 -0.0000 0.0000 -2.2504 25.3535 18.1311 8.3882 -7.1250 0.0000 -0.0000 -2.7050 49.8786 -0.3255 0.0000 0.0000 0.0000 82.3649 2.4923 22.2610 -25.0382 36.2430 -8.3125 0.0000 -0.0000 -17.3557 -23.2717 10.2542 -4.3781 7.1250 -0.0000 -0.0000 2.6593 -18.8460 1.6595
15.8852 20.8432 -0.3622 281.5020 82.2475 642.1480 0.0000 0.0000 0.0000 -4.0730 -26.1352 -16.5048 3.1626 10.9537 32.1238 -2.5884 -27.9395 3.3933 0.5052 4.5562 12.6468 0.0000 0.0000 0.0000 29.4163 2.0107 -10.0572 -2.3310 -9.5240 27.4487 -0.6287 8.9554 -14.5429 -1.0108 -6.3970 17.9408 7.6561 1.0930 7.5252 4.5300 2.3310 1.9243 0.1914 1.2090 -2.1168 -11.8799 -5.3516 -12.6085 7.5267 -5.9421 35.2027 4.3897 -2.6824 14.9888 -0.0000 0.0000 0.0000 -91.4989 6.2012 24.8917 16.5012 -26.1955 -3.8645 -0.0000 0.0000 -1.8147 25.3816 17.9245 8.3074 -7.1250 0.0000 -0.0000 -2.6333 49.6601 -0.3027 -0.0000 0.0000 0.0000 82.5176 2.3988 22.2983 -25.2110 36.4189 -8.4149 0.0000 -0.0000 -17.2485 -23.1452 10.6514 -4.5176 7.1250 -0.0000 -0.0000 2.7641 -18.4280 1.7506
15.9311 20.8327 -0.3818 287.9010 82.1961 648.2750 0.0000 0.0000 0.0000 -4.2590 -26.1784 -15.9910 3.0269 10.7384 31.4027 -2.9082 -29.0332 5.5500 0.5403 4.7096 13.0820 0.0000 0.0000 0.0000 29.1842 2.3899 -9.5165 -2.3479 -9.5560 27.5505 -0.6503 9.1872 -14.8088 -0.8683 -5.9415 16.6146 7.3038 1.1496 7.8241 4.5063 2.4031 1.9904 0.3473 1.2430 -2.2243 -11.6634 -5.2780 -12.6051 7.3087 -5.8190 35.3409 4.2845 -2.6305 15.0183 -0.0000 -0.0000 0.0000 -91.6007 6.3226 24.3737 16.5086 -26.2054 -3.8678 -0.0000 0.0000 -1.5433 25.0728 17.4406 7.9822 -7.1250 0.0000 -0.0000 -2.8351 49.0877 -0.2860 -0.0000 -0.0000 0.0000 82.5879 2.3178 22.5242 -25.3453 36.5548 -8.4947 0.0000 -0.0000 -17.0245 -23.5330 11.3092 -4.8814 7.1250 -0.0000 -0.0000 2.5193 -17.6819 1.6367
15.9786 20.8220 -0.4113 293.6650 81.9069 654.1340 0.0000 0.0000 0.0000 -4.1506 -26.0533 -15.9034 2.9030 10.5364 30.7319 -3.1760 -30.0010 6.9896 0.5876 4.9079 13.6461 0.0000 0.0000 0.0000 29.0296 2.5634 -9.4916 -2.3748 -9.6067 27.7121 -0.6367 9.9057 -14.8384 -0.8500 -5.8801 16.4370 7.1696 1.2380 7.7510 4.5179 2.5007 1.9658 0.4262 1.2905 -2.2109 -11.5114 -5.2426 -12.6427 7.1289 -5.7465 35.4598 4.1971 -2.6042 15.0605 0.0000 0.0000 0.0000 -91.6371 6.4800 24.3459 16.5712 -26.2890 -3.8955 -0.0000 0.0000 -1.8156 24.6914 17.1488 7.7202 -7.1250 0.0000 -0.0000 -3.1461 48.7130 -0.2884 0.0000 0.0000 0.0000 82.6279 2.2503 22.7608 -25.4801 36.6907 -8.5751 0.0000 -0.0000 -16.8679 -23.9208 11.8013 -5.1836 7.1250 -0.0000 -0.0000 2.2720 -17.1114 1.5041
16.0295 20.8222 -0.4481 299.9870 81.4984 660.7320 0.0000 0.0000 0.0000 -4.0652 -25.8857 -15.9359 2.7862 10.3406 30.0870 -3.4440 -31.0038 7.9102 0.6873 5.3004 14.7673 0.0000 0.0000 0.0000 28.7750 2.7648 -9.6918 -2.4156 -9.6829 27.9558 -0.5988 10.9006 -14.7400 -0.8645 -5.9286 16.5775 7.1863 1.4331 7.4363 4.4311 2.7203 1.9119 0.3169 1.3988 -2.0766 -11.6478 -5.2881 -12.5837 7.3700 -5.8749 35.4772 4.3051 -2.6488 15.0876 0.0000 0.0000 0.0000 -91.6880 6.5838 24.1651 16.5996 -26.3269 -3.9081 -0.0000 0.0000 -1.7092 24.3126 17.1236 7.5770 -7.1250 0.0000 -0.0000 -3.5079 48.6272 -0.3142 0.0000 0.0000 0.0000 82.7688 2.2262 22.8757 -25.5241 36.7349 -8.6014 0.0000 -0.0000 -16.6957 -23.6101 11.5947 -5.0206 7.1250 -0.0000 -0.0000 2.4787 -17.3656 1.6274
